<svg xmlns="http://www.w3.org/2000/svg" xmlns:xlink="http://www.w3.org/1999/xlink" width="500" zoomAndPan="magnify" viewBox="0 0 375 374.999991" height="500" preserveAspectRatio="xMidYMid meet" version="1.0"><defs><clipPath id="cafe1d4d19"><path d="M 7 12 L 366 12 L 366 371.660156 L 7 371.660156 Z M 7 12 " clip-rule="nonzero"/></clipPath></defs><g clip-path="url(#cafe1d4d19)"><path fill="#0072ff" d="M 316.875 249.765625 L 349.652344 238.792969 C 351.367188 238.246094 352.992188 237.5 354.527344 236.558594 C 356.0625 235.621094 357.464844 234.507812 358.730469 233.230469 C 360 231.953125 361.097656 230.539062 362.023438 228.996094 C 362.949219 227.453125 363.679688 225.820312 364.214844 224.101562 C 372.421875 196.515625 348.753906 177.71875 327.523438 184.839844 L 299.878906 194.140625 C 299.308594 194.332031 298.726562 194.464844 298.132812 194.542969 C 297.539062 194.617188 296.941406 194.636719 296.34375 194.59375 C 295.746094 194.550781 295.15625 194.453125 294.578125 194.292969 C 294 194.136719 293.441406 193.921875 292.90625 193.652344 C 292.371094 193.386719 291.863281 193.066406 291.390625 192.699219 C 290.917969 192.332031 290.484375 191.921875 290.09375 191.46875 C 289.699219 191.015625 289.355469 190.527344 289.058594 190.003906 C 288.761719 189.484375 288.519531 188.9375 288.332031 188.367188 L 269.921875 133.644531 C 269.734375 133.074219 269.597656 132.492188 269.523438 131.898438 C 269.449219 131.304688 269.429688 130.707031 269.472656 130.109375 C 269.515625 129.511719 269.613281 128.921875 269.773438 128.34375 C 269.929688 127.765625 270.144531 127.207031 270.410156 126.671875 C 270.679688 126.132812 270.996094 125.628906 271.367188 125.15625 C 271.734375 124.679688 272.144531 124.25 272.597656 123.855469 C 273.050781 123.464844 273.539062 123.121094 274.058594 122.824219 C 274.582031 122.527344 275.128906 122.285156 275.695312 122.097656 L 303.34375 112.859375 C 324.445312 105.800781 332.078125 76.800781 309.371094 59.671875 C 307.859375 58.585938 306.242188 57.691406 304.515625 56.996094 C 302.789062 56.300781 301.003906 55.820312 299.160156 55.558594 C 297.316406 55.296875 295.46875 55.257812 293.613281 55.445312 C 291.761719 55.628906 289.957031 56.035156 288.203125 56.65625 L 255.8125 67.4375 C 255.335938 67.597656 254.847656 67.710938 254.351562 67.773438 C 253.851562 67.839844 253.351562 67.855469 252.851562 67.820312 C 252.351562 67.789062 251.859375 67.703125 251.371094 67.574219 C 250.886719 67.441406 250.421875 67.265625 249.96875 67.042969 C 249.519531 66.816406 249.097656 66.550781 248.699219 66.246094 C 248.300781 65.9375 247.9375 65.59375 247.609375 65.214844 C 247.277344 64.835938 246.988281 64.429688 246.738281 63.992188 C 246.488281 63.558594 246.285156 63.101562 246.125 62.625 L 235.992188 32.277344 C 228.9375 11.171875 199.945312 3.539062 182.816406 26.25 C 181.730469 27.757812 180.835938 29.378906 180.140625 31.105469 C 179.445312 32.832031 178.96875 34.617188 178.703125 36.460938 C 178.441406 38.304688 178.402344 40.15625 178.589844 42.007812 C 178.773438 43.859375 179.179688 45.664062 179.804688 47.417969 L 190.578125 79.496094 C 190.769531 80.066406 190.902344 80.648438 190.980469 81.242188 C 191.054688 81.835938 191.070312 82.433594 191.03125 83.03125 C 190.988281 83.628906 190.886719 84.21875 190.730469 84.796875 C 190.570312 85.375 190.359375 85.933594 190.089844 86.46875 C 189.824219 87.007812 189.503906 87.511719 189.136719 87.984375 C 188.769531 88.460938 188.359375 88.890625 187.90625 89.285156 C 187.449219 89.675781 186.964844 90.023438 186.441406 90.316406 C 185.921875 90.613281 185.375 90.855469 184.804688 91.042969 L 127.078125 110.292969 C 126.507812 110.480469 125.925781 110.617188 125.332031 110.691406 C 124.738281 110.769531 124.140625 110.785156 123.542969 110.742188 C 122.945312 110.699219 122.355469 110.601562 121.777344 110.441406 C 121.199219 110.285156 120.640625 110.070312 120.105469 109.804688 C 119.570312 109.535156 119.0625 109.21875 118.589844 108.847656 C 118.117188 108.480469 117.683594 108.070312 117.292969 107.617188 C 116.898438 107.164062 116.554688 106.675781 116.257812 106.152344 C 115.960938 105.632812 115.71875 105.085938 115.53125 104.515625 L 105.847656 75.582031 C 98.789062 54.476562 69.796875 46.84375 52.671875 69.554688 C 51.582031 71.0625 50.691406 72.683594 49.996094 74.410156 C 49.300781 76.136719 48.820312 77.921875 48.558594 79.765625 C 48.296875 81.609375 48.257812 83.460938 48.445312 85.3125 C 48.628906 87.164062 49.035156 88.96875 49.65625 90.722656 L 60.945312 124.40625 C 61.121094 124.886719 61.25 125.378906 61.328125 125.882812 C 61.40625 126.386719 61.433594 126.894531 61.40625 127.40625 C 61.382812 127.917969 61.308594 128.421875 61.183594 128.914062 C 61.058594 129.410156 60.882812 129.890625 60.664062 130.351562 C 60.441406 130.8125 60.175781 131.246094 59.867188 131.652344 C 59.558594 132.058594 59.214844 132.433594 58.832031 132.769531 C 58.449219 133.109375 58.035156 133.40625 57.589844 133.660156 C 57.148438 133.914062 56.683594 134.125 56.199219 134.285156 L 23.613281 145.191406 C 21.902344 145.84375 20.273438 146.675781 18.738281 147.675781 C 17.203125 148.679688 15.789062 149.832031 14.5 151.140625 C 13.210938 152.445312 12.074219 153.875 11.09375 155.421875 C 10.109375 156.972656 9.300781 158.609375 8.667969 160.332031 C 2.253906 183.363281 17.84375 200.171875 35.546875 200.621094 C 38.925781 200.703125 42.21875 200.210938 45.421875 199.144531 L 73.070312 189.84375 C 73.636719 189.652344 74.21875 189.519531 74.8125 189.445312 C 75.410156 189.367188 76.003906 189.351562 76.605469 189.390625 C 77.203125 189.433594 77.789062 189.535156 78.367188 189.691406 C 78.949219 189.851562 79.503906 190.0625 80.042969 190.332031 C 80.578125 190.601562 81.082031 190.917969 81.554688 191.285156 C 82.03125 191.652344 82.460938 192.066406 82.855469 192.519531 C 83.246094 192.972656 83.59375 193.460938 83.886719 193.980469 C 84.183594 194.503906 84.425781 195.046875 84.613281 195.617188 L 103.152344 250.40625 C 103.34375 250.976562 103.476562 251.554688 103.550781 252.152344 C 103.628906 252.746094 103.644531 253.34375 103.605469 253.941406 C 103.5625 254.539062 103.460938 255.128906 103.304688 255.707031 C 103.144531 256.285156 102.933594 256.84375 102.664062 257.378906 C 102.394531 257.914062 102.078125 258.421875 101.710938 258.894531 C 101.34375 259.367188 100.929688 259.800781 100.476562 260.195312 C 100.023438 260.585938 99.535156 260.929688 99.015625 261.226562 C 98.492188 261.523438 97.949219 261.765625 97.378906 261.953125 L 66.207031 272.410156 C 64.492188 273.066406 62.867188 273.894531 61.328125 274.894531 C 59.792969 275.898438 58.378906 277.054688 57.089844 278.359375 C 55.800781 279.664062 54.664062 281.09375 53.683594 282.644531 C 52.699219 284.191406 51.890625 285.828125 51.261719 287.550781 C 44.847656 310.582031 60.433594 327.390625 78.136719 327.839844 C 81.558594 327.9375 84.894531 327.445312 88.144531 326.367188 L 117.199219 316.613281 C 117.675781 316.453125 118.164062 316.339844 118.660156 316.273438 C 119.160156 316.210938 119.660156 316.195312 120.160156 316.230469 C 120.660156 316.261719 121.152344 316.34375 121.640625 316.476562 C 122.125 316.605469 122.589844 316.785156 123.042969 317.007812 C 123.492188 317.230469 123.914062 317.496094 124.3125 317.804688 C 124.710938 318.113281 125.074219 318.453125 125.402344 318.832031 C 125.734375 319.210938 126.023438 319.621094 126.273438 320.054688 C 126.523438 320.492188 126.726562 320.949219 126.886719 321.425781 L 137.019531 351.769531 C 137.488281 353.183594 138.0625 354.550781 138.742188 355.875 C 139.421875 357.195312 140.195312 358.460938 141.070312 359.664062 C 141.941406 360.867188 142.902344 362 143.949219 363.054688 C 144.996094 364.113281 146.117188 365.082031 147.3125 365.96875 C 148.507812 366.851562 149.761719 367.640625 151.078125 368.332031 C 152.394531 369.023438 153.757812 369.613281 155.164062 370.09375 C 156.570312 370.578125 158.007812 370.949219 159.46875 371.210938 C 160.933594 371.472656 162.410156 371.625 163.894531 371.660156 C 166.464844 371.664062 168.996094 371.363281 171.492188 370.761719 C 173.988281 370.15625 176.378906 369.265625 178.664062 368.089844 C 180.945312 366.910156 183.054688 365.480469 184.996094 363.792969 C 186.933594 362.109375 188.644531 360.21875 190.128906 358.121094 C 191.253906 356.609375 192.175781 354.984375 192.898438 353.246094 C 193.621094 351.503906 194.121094 349.703125 194.402344 347.839844 C 194.679688 345.976562 194.730469 344.109375 194.550781 342.234375 C 194.371094 340.359375 193.964844 338.535156 193.335938 336.757812 L 182.496094 304.679688 C 182.304688 304.113281 182.171875 303.53125 182.097656 302.9375 C 182.019531 302.339844 182.003906 301.742188 182.046875 301.144531 C 182.085938 300.546875 182.1875 299.960938 182.34375 299.378906 C 182.503906 298.800781 182.714844 298.246094 182.984375 297.707031 C 183.253906 297.171875 183.570312 296.667969 183.9375 296.191406 C 184.308594 295.71875 184.71875 295.285156 185.171875 294.894531 C 185.625 294.5 186.113281 294.15625 186.632812 293.859375 C 187.15625 293.5625 187.699219 293.320312 188.269531 293.132812 L 246 273.886719 C 246.566406 273.695312 247.148438 273.5625 247.742188 273.488281 C 248.339844 273.410156 248.933594 273.394531 249.53125 273.433594 C 250.132812 273.476562 250.71875 273.578125 251.296875 273.734375 C 251.875 273.894531 252.433594 274.105469 252.96875 274.375 C 253.507812 274.644531 254.011719 274.960938 254.484375 275.328125 C 254.957031 275.695312 255.390625 276.109375 255.785156 276.5625 C 256.175781 277.015625 256.519531 277.503906 256.816406 278.023438 C 257.113281 278.546875 257.355469 279.089844 257.542969 279.660156 L 267.230469 308.59375 C 267.699219 310 268.273438 311.363281 268.953125 312.679688 C 269.632812 314 270.410156 315.257812 271.28125 316.457031 C 272.152344 317.65625 273.109375 318.78125 274.15625 319.835938 C 275.199219 320.886719 276.316406 321.855469 277.507812 322.734375 C 278.703125 323.617188 279.953125 324.402344 281.265625 325.09375 C 282.578125 325.78125 283.9375 326.367188 285.339844 326.851562 C 286.738281 327.332031 288.171875 327.703125 289.628906 327.96875 C 291.089844 328.230469 292.558594 328.378906 294.042969 328.417969 C 295.347656 328.40625 296.648438 328.316406 297.941406 328.144531 C 299.234375 327.972656 300.515625 327.722656 301.777344 327.390625 C 303.039062 327.0625 304.277344 326.652344 305.492188 326.171875 C 306.703125 325.6875 307.882812 325.128906 309.023438 324.5 C 310.167969 323.867188 311.269531 323.167969 312.324219 322.402344 C 313.382812 321.636719 314.386719 320.804688 315.339844 319.914062 C 316.296875 319.023438 317.191406 318.074219 318.027344 317.070312 C 318.863281 316.070312 319.632812 315.019531 320.339844 313.917969 C 321.40625 312.429688 322.28125 310.832031 322.964844 309.132812 C 323.652344 307.433594 324.125 305.675781 324.386719 303.863281 C 324.648438 302.046875 324.691406 300.226562 324.519531 298.402344 C 324.34375 296.578125 323.957031 294.800781 323.355469 293.070312 L 312.066406 259.386719 C 311.910156 258.914062 311.800781 258.429688 311.738281 257.933594 C 311.679688 257.4375 311.664062 256.941406 311.703125 256.445312 C 311.738281 255.945312 311.824219 255.457031 311.953125 254.976562 C 312.085938 254.496094 312.265625 254.03125 312.488281 253.585938 C 312.710938 253.136719 312.976562 252.71875 313.28125 252.324219 C 313.585938 251.929688 313.925781 251.566406 314.304688 251.238281 C 314.679688 250.914062 315.085938 250.625 315.519531 250.375 C 315.949219 250.128906 316.402344 249.925781 316.875 249.765625 Z M 225.023438 219.355469 L 172.492188 236.933594 C 171.746094 237.183594 170.988281 237.363281 170.207031 237.464844 C 169.429688 237.566406 168.648438 237.589844 167.867188 237.539062 C 167.082031 237.484375 166.3125 237.355469 165.554688 237.152344 C 164.796875 236.949219 164.066406 236.671875 163.363281 236.324219 C 162.660156 235.972656 162 235.558594 161.378906 235.082031 C 160.757812 234.601562 160.1875 234.066406 159.671875 233.472656 C 159.15625 232.882812 158.703125 232.246094 158.3125 231.566406 C 157.921875 230.882812 157.601562 230.171875 157.351562 229.425781 L 140.804688 179.835938 C 140.554688 179.101562 140.378906 178.351562 140.273438 177.582031 C 140.167969 176.816406 140.140625 176.046875 140.1875 175.273438 C 140.234375 174.5 140.355469 173.738281 140.550781 172.988281 C 140.742188 172.238281 141.007812 171.511719 141.34375 170.8125 C 141.679688 170.117188 142.078125 169.457031 142.542969 168.835938 C 143.007812 168.214844 143.527344 167.644531 144.101562 167.125 C 144.679688 166.609375 145.296875 166.148438 145.960938 165.75 C 146.625 165.351562 147.324219 165.023438 148.050781 164.757812 L 200.585938 147.117188 C 201.328125 146.863281 202.089844 146.6875 202.867188 146.585938 C 203.644531 146.484375 204.425781 146.460938 205.210938 146.511719 C 205.992188 146.566406 206.761719 146.695312 207.519531 146.898438 C 208.277344 147.101562 209.007812 147.378906 209.710938 147.726562 C 210.414062 148.078125 211.078125 148.488281 211.699219 148.96875 C 212.320312 149.449219 212.886719 149.984375 213.402344 150.574219 C 213.917969 151.167969 214.371094 151.804688 214.761719 152.484375 C 215.152344 153.164062 215.472656 153.878906 215.722656 154.621094 L 232.273438 204.085938 C 232.535156 204.824219 232.726562 205.582031 232.839844 206.359375 C 232.957031 207.136719 232.992188 207.917969 232.953125 208.699219 C 232.914062 209.484375 232.800781 210.257812 232.609375 211.019531 C 232.417969 211.78125 232.152344 212.515625 231.816406 213.226562 C 231.480469 213.933594 231.078125 214.605469 230.609375 215.234375 C 230.140625 215.863281 229.613281 216.441406 229.03125 216.96875 C 228.449219 217.492188 227.820312 217.957031 227.144531 218.359375 C 226.46875 218.761719 225.761719 219.09375 225.023438 219.355469 Z M 225.023438 219.355469 " fill-opacity="1" fill-rule="nonzero"/></g></svg>